<svg id="Layer_1" enable-background="new 0 0 510 510" height="512" viewBox="0 0 510 510" width="512" xmlns="http://www.w3.org/2000/svg"><g><g><path d="m502.093 318.121c.236-.91.463-1.826.688-2.743-.222.917-.455 1.83-.688 2.743z" fill="#bfe5fe"/><path d="m255 0c-98.131 0-158.574 55.347-158.741 55.441-3.787 17.481-10.374 42.85-10.374 61.465 0 140.833 118.763 254.972 259.596 254.972 60.017 0 115.159-27.944 158.719-62.639.178-1.087 5.8-23.477 5.8-54.239 0-140.833-114.167-255-255-255z" fill="#ffe565"/><path d="m345.459 364.679c-140.833 0-255-114.167-255-255 0-18.615 2.013-36.757 5.8-54.239-.006.005-.011.01-.017.014-58.645 46.721-96.242 118.738-96.242 199.546 0 47.859 13.185 92.639 36.12 130.905l130.021 108.185c27.669 10.288 57.608 15.91 88.859 15.91 31.253 0 61.191-5.623 88.858-15.913l64.887-35.647c45.366-34.349 78.884-83.528 93.349-140.32.233-.913.466-1.826.688-2.743.106-.436 1.068-4.522 1.418-6.139-43.56 34.696-98.725 55.441-158.741 55.441z" fill="#ffd508"/></g><g><path d="m166.145 494.079h177.71c23.454-8.723 45.279-20.793 64.888-35.64.08-1.018.133-2.043.133-3.082v-295.301c0-21.385-17.336-38.722-38.722-38.722h-295.3c-21.385 0-38.722 17.336-38.722 38.722v225.842c29.578 49.35 75.367 87.863 130.013 108.181z" fill="#e5554e"/><g><path d="m435.146 53.072h-244.649v23.142c1.808-.455 3.699-.699 5.648-.699 12.753 0 23.091 10.338 23.091 23.091s-10.338 23.091-23.091 23.091c-1.949 0-3.84-.244-5.648-.699v246.771h283.371v-275.975c0-21.385-17.336-38.722-38.722-38.722zm-56.3 68.625c-12.753 0-23.091-10.338-23.091-23.091s10.338-23.091 23.091-23.091 23.091 10.338 23.091 23.091-10.338 23.091-23.091 23.091z" fill="#5c83ef"/></g><g><path d="m223.261 330.584v-155.28h-3.724c-12.297 4.405-25.221-4.779-25.103-17.84.155-17.079.31-35.813.31-35.813-12.1-.725-21.689-10.763-21.689-23.044s9.59-22.32 21.689-23.044v-22.491h-54.899c-21.322 0-38.722 17.306-38.722 38.722v295.301c0 21.385 17.336 38.722 38.722 38.722h295.301c3.622 0 7.114-.504 10.425-1.426 10.58-11.898 20.069-24.787 28.297-38.521v-21.926h-217.247c-18.424 0-33.36-14.936-33.36-33.36z" fill="#3f67cd"/><g><path d="m390.7 278.15c0 24.191-5.007 42.694-15.019 55.508-10.014 12.816-24.671 19.224-43.974 19.224-19.065 0-33.641-6.287-43.734-18.863-10.092-12.574-15.259-30.596-15.499-54.066v-32.2c0-24.429 5.065-42.971 15.199-55.628 10.132-12.655 24.73-18.983 43.794-18.983 19.062 0 33.641 6.268 43.734 18.803 10.092 12.536 15.259 30.538 15.499 54.006zm-34.723-35.402c0-14.512-1.983-25.075-5.948-31.691-3.965-6.614-10.152-9.921-18.563-9.921-8.17 0-14.198 3.148-18.082 9.441-3.886 6.295-5.948 16.135-6.188 29.525v42.574c0 14.271 1.941 24.876 5.827 31.811 3.884 6.935 10.111 10.402 18.683 10.402 8.489 0 14.616-3.326 18.382-9.981 3.764-6.653 5.726-16.836 5.887-30.547v-41.613z" fill="#3f67cd"/></g></g><g fill="#fff"><path d="m242.197 331.542h-34.722v-133.844l-41.451 12.856v-28.235l72.449-25.951h3.724z"/><path d="m409.636 259.213c0 24.191-5.007 42.694-15.019 55.508-10.014 12.816-24.671 19.224-43.974 19.224-19.065 0-33.641-6.287-43.734-18.863-10.092-12.574-15.259-30.596-15.499-54.066v-32.2c0-24.429 5.065-42.971 15.199-55.628 10.132-12.655 24.73-18.983 43.794-18.983 19.062 0 33.641 6.268 43.734 18.803 10.092 12.536 15.259 30.538 15.499 54.006zm-34.723-35.402c0-14.512-1.982-25.075-5.948-31.691-3.964-6.614-10.152-9.921-18.563-9.921-8.17 0-14.198 3.148-18.082 9.441-3.886 6.295-5.948 16.135-6.188 29.525v42.574c0 14.271 1.941 24.876 5.827 31.811 3.884 6.935 10.111 10.402 18.683 10.402 8.489 0 14.616-3.326 18.382-9.981 3.764-6.653 5.726-16.836 5.887-30.547v-41.613z"/></g><g><path d="m196.145 108.839c-10.262 0-18.581-8.319-18.581-18.581v-57.677c0-10.262 8.319-18.581 18.581-18.581s18.581 8.319 18.581 18.581v57.678c0 10.262-8.319 18.58-18.581 18.58z" fill="#f76c57"/></g><g><path d="m378.846 108.839c-10.262 0-18.581-8.319-18.581-18.581v-57.677c0-10.262 8.319-18.581 18.581-18.581s18.581 8.319 18.581 18.581v57.678c0 10.262-8.319 18.58-18.581 18.58z" fill="#f76c57"/></g></g></g></svg>